<?xml version="1.0" standalone="no"?>
<!DOCTYPE svg PUBLIC "-//W3C//DTD SVG 20010904//EN"
 "http://www.w3.org/TR/2001/REC-SVG-20010904/DTD/svg10.dtd">
<svg version="1.0" xmlns="http://www.w3.org/2000/svg"
 width="800.000000pt" height="800.000000pt" viewBox="0 0 800.000000 800.000000"
 preserveAspectRatio="xMidYMid meet">
<metadata>
Created by potrace 1.14, written by Peter Selinger 2001-2017
</metadata>
<g transform="translate(0.000000,800.000000) scale(0.100000,-0.100000)"
fill="#000000" stroke="none">
<path d="M5918 4359 c-416 -48 -746 -292 -870 -642 -46 -130 -61 -241 -55
-402 18 -443 227 -735 697 -974 63 -33 198 -95 300 -139 361 -156 458 -209
539 -292 134 -138 128 -360 -12 -486 -55 -49 -129 -87 -219 -111 -92 -25 -297
-22 -401 6 -187 49 -343 168 -474 358 l-50 72 -299 -174 c-164 -96 -300 -178
-302 -183 -4 -14 59 -119 127 -208 156 -208 381 -370 645 -463 294 -104 709
-120 1021 -41 560 142 862 563 806 1121 -40 400 -223 649 -650 888 -107 60
-172 91 -431 203 -102 44 -223 99 -270 123 -219 111 -298 218 -288 393 8 127
63 210 178 268 46 24 71 29 154 32 164 7 263 -26 363 -121 30 -28 75 -82 100
-120 25 -38 51 -66 58 -64 31 13 565 361 565 370 0 22 -119 186 -185 256 -95
100 -181 163 -300 222 -203 98 -479 138 -747 108z"/>
<path d="M3607 2983 c-3 -1484 0 -1408 -64 -1525 -32 -60 -70 -93 -143 -127
-50 -24 -66 -26 -185 -26 -119 0 -134 2 -185 26 -102 49 -172 120 -261 266
-28 46 -52 83 -54 83 -4 0 -598 -359 -604 -365 -7 -8 78 -151 136 -229 164
-219 400 -367 678 -426 60 -13 158 -23 245 -27 254 -10 462 28 647 117 287
140 455 381 520 750 17 99 18 186 18 1465 l0 1360 -372 3 -372 2 -4 -1347z"/>
</g>
</svg>
